<svg width="43" height="48" viewBox="0 0 43 48" fill="none" xmlns="http://www.w3.org/2000/svg">
<path d="M42.24 33.9181L37.561 25.2798V16.2857C37.561 7.30575 30.2553 0 21.2753 0C12.2954 0 4.9896 7.30575 4.9896 16.2857V25.2798L0.310462 33.918C0.0982677 34.3097 -0.00853066 34.7498 0.000532326 35.1952C0.00959531 35.6406 0.134209 36.0759 0.362162 36.4587C0.590115 36.8414 0.913589 37.1584 1.30089 37.3785C1.68819 37.5986 2.12602 37.7143 2.5715 37.7143H11.886C11.8605 37.9967 11.8466 38.2821 11.8466 38.5714C11.8466 41.072 12.84 43.4702 14.6082 45.2384C16.3764 47.0066 18.7746 48 21.2752 48C23.7758 48 26.174 47.0066 27.9422 45.2384C29.7104 43.4702 30.7038 41.072 30.7038 38.5714C30.7038 38.2821 30.69 37.9967 30.6645 37.7143H39.9789C40.4244 37.7142 40.8621 37.5985 41.2494 37.3783C41.6366 37.1582 41.96 36.8413 42.188 36.4586C42.4159 36.0759 42.5405 35.6405 42.5495 35.1952C42.5586 34.7498 42.4518 34.3098 42.2396 33.9181H42.24ZM27.2753 38.5714C27.276 39.396 27.1067 40.2118 26.778 40.968C26.4494 41.7242 25.9683 42.4046 25.365 42.9666C24.7617 43.5286 24.049 43.9602 23.2714 44.2346C22.4938 44.5089 21.668 44.62 20.8456 44.5609C20.0232 44.5019 19.2218 44.2739 18.4913 43.8913C17.7609 43.5088 17.1172 42.9797 16.6004 42.3373C16.0835 41.6948 15.7046 40.9527 15.4874 40.1573C15.2701 39.3619 15.2191 38.5303 15.3376 37.7143H27.213C27.2542 37.9981 27.275 38.2846 27.2753 38.5714ZM4.01053 34.2857L8.41818 26.1488V16.2857C8.41818 12.8758 9.77277 9.60552 12.1839 7.19434C14.5951 4.78316 17.8654 3.42857 21.2753 3.42857C24.6852 3.42857 27.9555 4.78316 30.3667 7.19434C32.7779 9.60552 34.1325 12.8758 34.1325 16.2857V26.1488L38.5399 34.2857H4.01053Z" fill="#FFA500"/>
</svg>
